<svg xmlns="http://www.w3.org/2000/svg" width="220" height="194" viewBox="0 0 220 194">
    <defs>
        <filter id="a" width="105.7%" height="220%" x="-2.8%" y="-60%" filterUnits="objectBoundingBox">
            <feGaussianBlur in="SourceGraphic" stdDeviation="2"/>
        </filter>
    </defs>
    <g fill="none" fill-rule="evenodd" transform="translate(4)">
        <ellipse cx="106" cy="184" fill="#9B9B9B" filter="url(#a)" opacity=".2" rx="106" ry="5"/>
        <path fill="#4A5264" d="M97.534 37.234c.042-.012.121-2.118.033-2.164-4.223-2.234-9.235-3.935-12.392-7.686.108.127-.024.92-.028 1.082 0 .178-.128.936-.004 1.083 1.542 1.832 3.527 3.175 5.646 4.329-7.029-.595-14.2-1.32-21.127.104-3.843.79-7.452 2.41-10.468 4.908-3.69 3.056-6.189 7.281-7.972 11.661-3.945 9.693-5.955 23.777 3.973 30.814.514.364 1.67-.181 2.171.172-7.762-5.5-8.206-15.953-6.173-24.367 2.056-8.518 6.721-17.24 14.943-21.146 7.58-3.603 16.386-2.855 24.672-2.136 1.36.741 2.773 1.404 4.162 2.07a42.918 42.918 0 0 0-7.975 3.993c-.148.096-.08.636-.016 1.152l-.015 1.014c.855-.334 1.772-.297 2.628-.63.123-.048.091-.478.042-.943a42.968 42.968 0 0 1 7.9-3.31" opacity=".6"/>
        <g opacity=".5">
            <path fill="#EFEFEF" d="M182.189 98.451c6.667 0 12.085 5.415 12.085 12.088v58.647c0 6.686-5.406 12.089-12.085 12.089H26.811c-6.667 0-12.085-5.416-12.085-12.089V110.54c0-6.685 5.406-12.088 12.085-12.088h155.378z"/>
            <path fill="#4A5264" fill-rule="nonzero" d="M37.86 100.902l-.69.69h138.113l-.69-.69v77.647l.69-.69H37.17l.69.69v-77.647zm-.69 77.647h138.113v-77.647H37.17v77.647zm-8.632-54.216a1.726 1.726 0 1 1-3.452 0 1.726 1.726 0 0 1 3.452 0zM23.358 139a.863.863 0 1 1-1.725 0 .863.863 0 0 1 1.725 0zm3.453-6.901V145.9a.863.863 0 1 0 1.726 0V132.1a.863.863 0 0 0-1.726 0zm157.967 13.803a6.904 6.904 0 0 1-6.905-6.902 6.904 6.904 0 0 1 6.905-6.902 6.904 6.904 0 0 1 6.906 6.902 6.904 6.904 0 0 1-6.906 6.902zm0-12.078A5.178 5.178 0 0 0 179.6 139a5.178 5.178 0 0 0 5.18 5.176c2.86 0 5.179-2.317 5.179-5.176a5.178 5.178 0 0 0-5.18-5.176zM182.19 98.45c6.667 0 12.085 5.415 12.085 12.088v58.647c0 6.686-5.406 12.089-12.085 12.089H26.811c-6.667 0-12.085-5.416-12.085-12.089V110.54c0-6.685 5.406-12.088 12.085-12.088h155.378zM13 110.539v58.647C13 176.816 19.194 183 26.811 183h155.378c7.628 0 13.811-6.17 13.811-13.814V110.54c0-7.629-6.194-13.814-13.811-13.814H26.811c-7.628 0-13.811 6.17-13.811 13.814zM38.017 95c-.468 0-.847.4-.847.863v.862h6.905v-.862A.85.85 0 0 0 43.23 95h-5.212zm15.555 0c-.478 0-.864.4-.864.863v.862h13.81v-.862a.87.87 0 0 0-.863-.863H53.572zm17.264 0c-.477 0-.864.4-.864.863v.862h13.811v-.862a.87.87 0 0 0-.864-.863H70.836z"/>
            <path fill="#4A5264" d="M37.17 178.549h138.113v-77.647H37.17z"/>
        </g>
        <path fill="#FFF" d="M89.281 133.826v16.455h-1.877v-16.455h1.877zm-12.44 4.877c-.922 0-1.667-.744-1.667-1.877 0-.923.745-1.683 1.668-1.683 1.132 0 1.877.76 1.877 1.683 0 1.133-.745 1.877-1.877 1.877zm-1.667 8.578c0-1.119.745-1.877 1.668-1.877 1.132 0 1.877.758 1.877 1.877 0 .937-.745 1.862-1.877 1.862-.923 0-1.668-.925-1.668-1.862z"/>
        <path fill="#EFEFEF" d="M111.451 169.189c0 6.667 5.415 12.085 12.088 12.085h58.647c6.686 0 12.089-5.406 12.089-12.085V13.811c0-6.667-5.416-12.085-12.089-12.085H123.54c-6.685 0-12.088 5.406-12.088 12.085v155.378z"/>
        <path fill="#005EAA" fill-rule="nonzero" d="M113.902 24.86l.69-.69v138.113l-.69-.69h77.647l-.69.69V24.17l.69.69h-77.647zm77.647-.69v138.113h-77.647V24.17h77.647zm-54.216-8.632a1.726 1.726 0 1 0 0-3.452 1.726 1.726 0 0 0 0 3.452zM152 10.358a.863.863 0 1 0 0-1.725.863.863 0 0 0 0 1.725zm-6.901 3.453H158.9a.863.863 0 1 1 0 1.726H145.1a.863.863 0 0 1 0-1.726zm13.803 157.967a6.904 6.904 0 0 0-6.902-6.905 6.904 6.904 0 0 0-6.902 6.905 6.904 6.904 0 0 0 6.902 6.906 6.904 6.904 0 0 0 6.902-6.906zm-12.078 0c0-2.86 2.317-5.179 5.176-5.179a5.178 5.178 0 0 1 5.176 5.18c0 2.86-2.317 5.179-5.176 5.179a5.178 5.178 0 0 1-5.176-5.18zm-35.373-2.589c0 6.667 5.415 12.085 12.088 12.085h58.647c6.686 0 12.089-5.406 12.089-12.085V13.811c0-6.667-5.416-12.085-12.089-12.085H123.54c-6.685 0-12.088 5.406-12.088 12.085v155.378zM123.539 0h58.647C189.816 0 196 6.194 196 13.811v155.378c0 7.628-6.17 13.811-13.814 13.811H123.54c-7.629 0-13.814-6.194-13.814-13.811V13.811C109.725 6.183 115.895 0 123.54 0zM108 25.017c0-.468.4-.847.863-.847h.862v6.905h-.862a.85.85 0 0 1-.863-.846v-5.212zm0 15.555c0-.478.4-.864.863-.864h.862v13.81h-.862a.87.87 0 0 1-.863-.863V40.572zm0 17.264c0-.477.4-.864.863-.864h.862v13.811h-.862a.87.87 0 0 1-.863-.864V57.836z"/>
        <path fill="#005EAA" d="M191.549 24.17v138.113h-77.647V24.17z" opacity=".5"/>
        <path fill="#FFF" d="M158.045 76.596c.99 0 1.825-.785 1.825-1.766 0-1.037-.835-1.83-1.825-1.83-1.032 0-1.869.793-1.869 1.83 0 .981.837 1.766 1.869 1.766zm-5.043 11.134c3.78 0 6.93-2.51 7.998-5.975l-16-.06a8.305 8.305 0 0 0 8.002 6.035zm-4.96-11.134c.985 0 1.821-.785 1.821-1.766 0-1.037-.836-1.83-1.821-1.83-1.037 0-1.826.793-1.826 1.83 0 .981.789 1.766 1.826 1.766z"/>
    </g>
</svg>
